<?xml version="1.0" encoding="UTF-8" standalone="no"?>
<!-- Created with Inkscape (http://www.inkscape.org/) -->

<svg
   xmlns:dc="http://purl.org/dc/elements/1.1/"
   xmlns:cc="http://creativecommons.org/ns#"
   xmlns:rdf="http://www.w3.org/1999/02/22-rdf-syntax-ns#"
   xmlns:svg="http://www.w3.org/2000/svg"
   xmlns="http://www.w3.org/2000/svg"
   xmlns:sodipodi="http://sodipodi.sourceforge.net/DTD/sodipodi-0.dtd"
   xmlns:inkscape="http://www.inkscape.org/namespaces/inkscape"
   width="175.38094mm"
   height="175.38094mm"
   viewBox="0 0 175.38094 175.38094"
   version="1.1"
   id="svg925"
   inkscape:version="0.92.3 (2405546, 2018-03-11)"
   sodipodi:docname="logo.svg">
  <defs
     id="defs919" />
  <sodipodi:namedview
     id="base"
     pagecolor="#ffffff"
     bordercolor="#666666"
     borderopacity="1.0"
     inkscape:pageopacity="0.0"
     inkscape:pageshadow="2"
     inkscape:zoom="0.98994949"
     inkscape:cx="362.84651"
     inkscape:cy="240.70387"
     inkscape:document-units="mm"
     inkscape:current-layer="layer1"
     showgrid="false"
     inkscape:window-width="2560"
     inkscape:window-height="1378"
     inkscape:window-x="0"
     inkscape:window-y="0"
     inkscape:window-maximized="1"
     fit-margin-top="0"
     fit-margin-left="0"
     fit-margin-right="0"
     fit-margin-bottom="0" />
  <metadata
     id="metadata922">
    <rdf:RDF>
      <cc:Work
         rdf:about="">
        <dc:format>image/svg+xml</dc:format>
        <dc:type
           rdf:resource="http://purl.org/dc/dcmitype/StillImage" />
        <dc:title></dc:title>
      </cc:Work>
    </rdf:RDF>
  </metadata>
  <g
     inkscape:label="Layer 1"
     inkscape:groupmode="layer"
     id="layer1"
     transform="translate(523.27496,258.80356)">
    <g
       id="g857"
       transform="translate(27.814198,-5.470218)">
      <path
         inkscape:connector-curvature="0"
         id="path897"
         d="m -500.72266,-191.923 7.41673,33.19488 7.41673,-33.07461 11.18523,-0.16036 -15.95599,65.10686 c 0,0 -2.88651,11.90686 -17.39925,9.98252 l 0.0802,-10.02261 c 0,0 6.48462,1.20271 7.91786,-3.548 l 2.74619,-10.2832 -14.99868,-51.18392 z"
         style="fill:#ffffff;fill-opacity:1;stroke:none;stroke-width:0.26458332px;stroke-linecap:butt;stroke-linejoin:miter;stroke-opacity:1" />
      <path
         sodipodi:nodetypes="ccccccccccc"
         inkscape:connector-curvature="0"
         id="path899"
         d="m -474.35317,-192.05329 -0.1303,8.56933 5.27189,-0.0401 0.0687,45.35374 10.7106,-0.0916 0.16449,-45.19463 7.79575,-0.0638 0.0284,-8.36273 -7.79576,-0.0567 -0.0142,-9.18482 c 0,0 0.26931,-2.09777 2.11195,-2.15446 l 5.65232,-0.0597 0.0601,-10.26315 -4.82088,-0.01 c 0,0 -12.84034,-0.52451 -13.91758,12.43062 l -0.12756,9.24152 z"
         style="fill:#ffffff;fill-opacity:1;stroke:none;stroke-width:0.26458332px;stroke-linecap:butt;stroke-linejoin:miter;stroke-opacity:1" />
      <path
         inkscape:connector-curvature="0"
         id="path903"
         d="m -430.86953,-214.97906 c -2.68294,-0.01 -6.63599,0.54161 -10.15855,3.13107 0,0 -6.0419,4.78555 -5.89318,15.63522 l 0.007,79.90624 10.75852,-0.0145 0.0139,-26.97303 1.5875,1.67225 c -0.0968,0.14999 4.81657,5.84862 12.35841,3.58738 0,0 7.34389,-2.08463 7.59903,-11.80807 l 0.11319,-23.72775 c 0,0 -0.0565,-4.87582 -6.26473,-8.90127 0,0 5.58452,-1.61577 6.12314,-8.90126 0,0 0.23463,-10.6855 -0.47491,-12.18324 0,0 -1.82144,-9.92859 -12.67881,-11.11922 -0.32777,-0.0907 -1.48048,-0.2981 -3.09025,-0.30385 z m 0.30128,10.25415 c 1.17645,0.0106 2.06602,0.32608 2.06602,0.32608 3.34509,1.06306 3.21738,5.2586 3.21738,5.2586 l -0.0424,8.44754 c -0.38271,3.26004 -3.75585,3.9548 -3.75585,3.9548 l -3.04788,-0.0139 0.0568,9.66659 3.14658,0.0139 c 3.35926,0.73706 3.64267,3.48712 3.64267,3.48712 l -0.0424,20.99149 -0.24081,0.7798 c -1.84263,4.28058 -5.69784,3.1042 -5.69784,3.1042 -5.07434,-0.85045 -4.84778,-4.7625 -4.84778,-4.7625 l 0.17002,-45.89591 c 0.28348,-3.14665 1.5875,-3.85506 1.5875,-3.85506 1.1481,-1.21897 2.61143,-1.51338 3.78788,-1.50275 z"
         style="fill:#f63808;fill-opacity:1;stroke:none;stroke-width:0.26458332px;stroke-linecap:butt;stroke-linejoin:miter;stroke-opacity:1" />
    </g>
  </g>
</svg>
